<svg width="135" height="135" viewBox="0 0 135 135" fill="none" xmlns="http://www.w3.org/2000/svg">
<path d="M131.759 129L134.205 134L-2.18557e-07 134L2.99998 129L131.759 129Z" fill="black"/>
<path d="M69 1.5L69.7171 8.24814L6.45945 132.998L2.00001 130.737L69 1.5Z" fill="black"/>
<rect x="66" y="11" width="5" height="118" fill="black"/>
<path d="M66.952 7.70811L69 1.5L133.151 131.911L128.657 134.104L66.952 7.70811Z" fill="black"/>
<path d="M102.5 92.5C102.5 111.246 87.086 126.5 68 126.5C48.914 126.5 33.5 111.246 33.5 92.5C33.5 73.7543 48.914 58.5 68 58.5C87.086 58.5 102.5 73.7543 102.5 92.5Z" stroke="black" stroke-width="5"/>
<circle cx="68.5" cy="116.5" r="5.5" fill="black"/>
<circle cx="68.5" cy="98.5" r="5.5" fill="black"/>
<circle cx="68.5" cy="42.5" r="4.5" fill="black"/>
<circle cx="68.5" cy="77.5" r="5.5" fill="black"/>
</svg>
