<svg width="78" height="79" viewBox="0 0 78 79" fill="none" xmlns="http://www.w3.org/2000/svg">
<path d="M76.5787 75.3553L78 78.2613L4.97095e-07 78.2613L1.7436 75.3553L76.5787 75.3553Z" fill="white"/>
<path d="M40.1029 1.25216L40.5197 5.17419L3.75424 77.6789L1.16241 76.3646L40.1029 1.25216Z" fill="white"/>
<rect x="38.3593" y="6.77357" width="2.90601" height="68.5818" fill="white"/>
<path d="M38.9126 4.86033L40.1029 1.25217L77.3872 77.0471L74.7758 78.322L38.9126 4.86033Z" fill="white"/>
<path d="M58.5261 54.1415C58.5261 64.4449 50.0497 72.8553 39.5217 72.8553C28.9936 72.8553 20.5172 64.4449 20.5172 54.1415C20.5172 43.8381 28.9936 35.4276 39.5217 35.4276C50.0497 35.4276 58.5261 43.8381 58.5261 54.1415Z" stroke="white" stroke-width="5"/>
<circle cx="39.8123" cy="68.0903" r="3.19661" fill="white"/>
<circle cx="39.8123" cy="57.6287" r="3.19661" fill="white"/>
<circle cx="39.8123" cy="25.0814" r="2.61541" fill="white"/>
<circle cx="39.8123" cy="45.4235" r="3.19661" fill="white"/>
</svg>
